<svg xmlns="http://www.w3.org/2000/svg" viewBox="0 0 640 640" width="640" height="640" role="img" aria-label="Profile">
  <defs>
    <linearGradient id="bg" x1="0" y1="0" x2="0" y2="1"><stop offset="0" stop-color="#0d1226"/><stop offset="1" stop-color="#070910"/></linearGradient>
    <radialGradient id="moon" cx="50%" cy="50%" r="50%"><stop offset="0.6" stop-color="#e9c98e"/><stop offset="1" stop-color="#e9c98e" stop-opacity="0"/></radialGradient>
    <linearGradient id="skin" x1="0" y1="0" x2="1" y2="1"><stop offset="0" stop-color="#232b52"/><stop offset="1" stop-color="#0b0f1e"/></linearGradient>
  </defs>
  <rect width="640" height="640" fill="url(#bg)"/>
  <circle cx="400" cy="230" r="170" fill="url(#moon)" opacity="0.9"/>
  <path fill="url(#skin)" d="M262 92c92-10 160 52 166 130 4 46-10 70-4 92 6 20 22 28 16 40-4 8-14 8-12 18 2 8 8 12 2 20-6 8-16 4-12 18 4 12 4 30-16 40-26 12-64 8-84 6L318 640H120V282c0-50 4-92 30-130 24-36 62-54 112-60z"/>
  <path fill="none" stroke="#a394ff" stroke-opacity="0.5" stroke-width="1.2" d="M262 92c92-10 160 52 166 130 4 46-10 70-4 92 6 20 22 28 16 40-4 8-14 8-12 18 2 8 8 12 2 20-6 8-16 4-12 18 4 12 4 30-16 40-26 12-64 8-84 6"/>
</svg>
